HIERARCHY
ROOT Hips
{
    OFFSET 0.000000 0.000000 0.000000
    CHANNELS 6 Xposition Yposition Zposition Zrotation Xrotation Yrotation
    JOINT Spine
    {
        OFFSET -0.000000 14.517291 0.000000
        CHANNELS 3 Zrotation Xrotation Yrotation
        JOINT Spine1
        {
            OFFSET -0.000000 37.558300 0.000000
            CHANNELS 3 Zrotation Xrotation Yrotation
            JOINT Neck
            {
                OFFSET -0.000000 37.404057 3.400369
                CHANNELS 3 Zrotation Xrotation Yrotation
                JOINT Head
                {
                    OFFSET -0.000000 24.785618 -3.540803
                    CHANNELS 3 Zrotation Xrotation Yrotation
                    End Site
                    {
                        OFFSET -0.000000 35.408028 0.000000
                    }
                }
            }
            JOINT LeftShoulder
            {
                OFFSET 6.992933 33.973492 -0.192664
                CHANNELS 3 Zrotation Xrotation Yrotation
                JOINT LeftArm
                {
                    OFFSET 21.527611 0.000000 0.000000
                    CHANNELS 3 Zrotation Xrotation Yrotation
                    JOINT LeftForeArm
                    {
                        OFFSET 56.353916 0.000000 0.000000
                        CHANNELS 3 Zrotation Xrotation Yrotation
                        JOINT LeftHand
                        {
                            OFFSET 47.774071 0.000000 0.000000
                            CHANNELS 3 Zrotation Xrotation Yrotation
                            End Site
                            {
                                OFFSET 26.556021 0.000000 0.000000
                            }
                        }
                    }
                }
            }
            JOINT RightShoulder
            {
                OFFSET -7.065357 33.973492 -0.192664
                CHANNELS 3 Zrotation Xrotation Yrotation
                JOINT RightArm
                {
                    OFFSET -21.527611 0.000000 0.000000
                    CHANNELS 3 Zrotation Xrotation Yrotation
                    JOINT RightForeArm
                    {
                        OFFSET -56.353916 0.000000 0.000000
                        CHANNELS 3 Zrotation Xrotation Yrotation
                        JOINT RightHand
                        {
                            OFFSET -47.774071 0.000000 0.000000
                            CHANNELS 3 Zrotation Xrotation Yrotation
                            End Site
                            {
                                OFFSET -26.556021 0.000000 0.000000
                            }
                        }
                    }
                }
            }
        }
    }
    JOINT LeftUpLeg
    {
        OFFSET 17.704014 0.000000 0.000000
        CHANNELS 3 Zrotation Xrotation Yrotation
        JOINT LeftLeg
        {
            OFFSET -0.000000 -81.181816 0.000000
            CHANNELS 3 Zrotation Xrotation Yrotation
            JOINT LeftFoot
            {
                OFFSET -0.000000 -62.821102 0.000000
                CHANNELS 3 Zrotation Xrotation Yrotation
                JOINT LeftToeBase
                {
                    OFFSET -0.000000 -11.507608 26.556021
                    CHANNELS 3 Zrotation Xrotation Yrotation
                    End Site
                    {
                        OFFSET -0.000000 0.000000 7.081605
                    }
                }
            }
        }
    }
    JOINT RightUpLeg
    {
        OFFSET -17.704014 0.000000 0.000000
        CHANNELS 3 Zrotation Xrotation Yrotation
        JOINT RightLeg
        {
            OFFSET -0.000000 -81.181816 0.000000
            CHANNELS 3 Zrotation Xrotation Yrotation
            JOINT RightFoot
            {
                OFFSET -0.000000 -62.821102 0.000000
                CHANNELS 3 Zrotation Xrotation Yrotation
                JOINT RightToeBase
                {
                    OFFSET -0.000000 -11.507608 26.556021
                    CHANNELS 3 Zrotation Xrotation Yrotation
                    End Site
                    {
                        OFFSET -0.000000 0.000000 7.081605
                    }
                }
            }
        }
    }
}
MOTION
Frames:    8
Frame Time:    0.008333
-17.507841    143.216354    -38.049843    -2.153728    -5.945721    51.424095    0.417246    0.501151    -3.646546    -9.850174    0.949294    -1.132069    6.643919    -3.216785    -10.902932    14.640861    7.578305    -11.437376    9.931594    3.791770    -27.284010    -21.400997    20.314693    -77.730591    -15.543262    -9.609313    -74.279060    10.885090    -21.566910    -5.798872    -15.253779    -8.628265    1.229330    24.541210    -28.450974    71.985359    -1.251454    -5.418642    22.753649    -13.817971    -8.649670    28.347214    34.426117    2.622285    -7.752183    -7.166646    30.771940    -23.626896    -9.362783    -34.763420    36.946239    0.000000    0.000000    0.000000    -28.078350    -25.565269    -22.770342    22.904085    42.824703    -24.716650    4.844646    -0.498417    -15.682554    0.000000    0.000000    0.000000    
-17.574306    143.146133    -37.972839    -2.068713    -5.859674    51.392105    0.373526    0.539564    -3.669635    -9.774058    0.972237    -1.138455    6.643072    -3.181456    -10.864905    14.624715    7.487047    -11.384671    9.903966    3.769018    -27.325209    -21.280626    20.321369    -77.761307    -15.399733    -9.807695    -74.280373    10.749359    -21.650923    -5.879377    -15.274078    -8.595804    1.213649    24.604309    -28.464579    72.006302    -1.132222    -5.451540    22.614769    -13.751640    -8.694277    28.375460    34.375721    2.823444    -7.695663    -7.077453    30.422693    -23.591251    -9.674916    -34.773407    36.745453    0.000000    0.000000    0.000000    -28.211740    -25.647961    -22.722168    23.050354    43.001926    -24.787434    4.833621    -0.703239    -15.699054    0.000000    0.000000    0.000000    
-17.628414    143.081955    -37.935669    -1.991931    -5.755399    51.354347    0.305887    0.557317    -3.693773    -9.697513    1.012291    -1.143850    6.636530    -3.170766    -10.849409    14.596285    7.412255    -11.359140    9.906231    3.717117    -27.377520    -21.296621    20.274788    -77.750160    -15.319894    -9.851908    -74.233002    10.609194    -21.623983    -5.940465    -15.287964    -8.529010    1.210116    24.625193    -28.511652    71.947327    -1.020700    -5.502379    22.607626    -13.755335    -8.755377    28.277527    34.314610    2.986233    -7.618580    -7.034251    30.121918    -23.589470    -9.892445    -34.783459    36.614365    0.000000    0.000000    0.000000    -28.360434    -25.749874    -22.680752    23.165520    43.157429    -24.849476    4.836342    -0.864665    -15.714108    0.000000    0.000000    0.000000    
-17.676662    143.030975    -37.928192    -1.924600    -5.657612    51.319145    0.247029    0.573944    -3.734275    -9.647186    1.046369    -1.154972    6.729942    -3.138458    -10.822967    14.505175    7.314607    -11.340651    9.949377    3.724605    -27.417984    -21.211182    20.243977    -77.795937    -15.182002    -10.032253    -74.213165    10.541089    -21.686140    -5.927775    -15.223246    -8.518941    1.243891    24.620804    -28.530193    71.858971    -0.918818    -5.501932    22.616629    -13.701473    -8.757078    28.243473    34.255768    3.103358    -7.506607    -6.998195    29.890821    -23.579432    -10.097035    -34.756161    36.442272    0.000000    0.000000    0.000000    -28.497631    -25.839417    -22.630283    23.283848    43.260220    -24.911877    4.808932    -0.987277    -15.743233    0.000000    0.000000    0.000000    
-17.721754    142.988602    -37.952621    -1.868682    -5.541342    51.286064    0.179741    0.576088    -3.787656    -9.588000    1.071810    -1.171262    6.804988    -3.142215    -10.775516    14.370697    7.261139    -11.308176    9.962517    3.715832    -27.418928    -21.081673    20.273239    -77.847595    -15.005315    -10.258223    -74.219810    10.412171    -21.766335    -5.922578    -15.194269    -8.480561    1.277519    24.595572    -28.511232    71.781723    -0.922906    -5.557297    22.594221    -13.635019    -8.793972    28.238411    34.187088    3.166044    -7.405149    -7.011112    29.712725    -23.581539    -10.268820    -34.746872    36.318542    0.000000    0.000000    0.000000    -28.640488    -25.937334    -22.562397    23.388905    43.314686    -25.009754    4.768168    -1.084745    -15.742271    0.000000    0.000000    0.000000    
-17.761799    142.957977    -38.001747    -1.817759    -5.423270    51.252010    0.125296    0.580800    -3.844558    -9.559972    1.089500    -1.189127    6.862370    -3.166710    -10.753363    14.274885    7.247783    -11.302499    10.022928    3.695381    -27.401300    -21.145853    20.218750    -77.854942    -14.958043    -10.252577    -74.155373    10.237065    -21.709782    -5.967293    -15.163535    -8.437007    1.293840    24.616678    -28.509302    71.710213    -0.890703    -5.587664    22.647964    -13.585248    -8.822262    28.276539    34.108883    3.199497    -7.255971    -7.006085    29.587128    -23.656563    -10.374062    -34.720242    36.250450    0.000000    0.000000    0.000000    -28.773363    -26.030441    -22.500938    23.493376    43.335941    -25.153521    4.669086    -1.168495    -15.740745    0.000000    0.000000    0.000000    
-17.800474    142.941940    -38.076340    -1.777411    -5.306978    51.212574    0.056043    0.595977    -3.882618    -9.492763    1.090194    -1.202502    6.852911    -3.190275    -10.735319    14.259933    7.223835    -11.281487    10.037984    3.677993    -27.416773    -21.189291    20.186634    -77.840836    -14.968392    -10.265585    -74.141273    10.268583    -21.725973    -5.939657    -15.140388    -8.361747    1.270906    24.561195    -28.480473    71.652451    -0.971290    -5.602286    22.672029    -13.463473    -8.787241    28.255642    34.031349    3.189449    -7.069009    -7.000780    29.528723    -23.832117    -10.411402    -34.680534    36.239693    0.000000    0.000000    0.000000    -28.884521    -26.120237    -22.415222    23.536320    43.308762    -25.220160    4.632912    -1.222126    -15.742971    0.000000    0.000000    0.000000    
-17.839315    142.944778    -38.173695    -1.747993    -5.205019    51.175758    0.009022    0.627744    -3.928208    -9.434804    1.079789    -1.219144    6.892850    -3.269167    -10.708855    14.145985    7.274392    -11.280991    10.057121    3.650550    -27.400732    -21.175611    20.186010    -77.849945    -14.930511    -10.320064    -74.152649    10.138124    -21.746475    -5.946440    -15.092950    -8.312825    1.239138    24.483789    -28.447369    71.598236    -0.998707    -5.671727    22.721951    -13.434949    -8.846130    28.279911    33.957939    3.142467    -6.907756    -7.006667    29.524549    -24.034098    -10.406191    -34.648785    36.296021    0.000000    0.000000    0.000000    -28.964338    -26.198954    -22.330507    23.511522    43.238617    -25.183577    4.602617    -1.199925    -15.781523    0.000000    0.000000    0.000000    
